name Walk2.mot
datacolumns 19
datarows 22
range 0.73500000 0.84000000
endheader

                time	   L_ground_force_vx	   L_ground_force_vy	   L_ground_force_vz	   L_ground_force_px	   L_ground_force_py	   L_ground_force_pz	   R_ground_force_vx	   R_ground_force_vy	   R_ground_force_vz	   R_ground_force_px	   R_ground_force_py	   R_ground_force_pz	   L_ground_torque_x	   L_ground_torque_y	   L_ground_torque_z	   R_ground_torque_x	   R_ground_torque_y	   R_ground_torque_z	
          0.73500000	         13.69531656	        719.96294561	         27.92373212	         -0.31333523	          0.00000000	         -0.04328454	          0.00519633	          0.15007333	          0.00306840	          0.00012043	          0.00000000	          0.00007122	          0.00000000	         -1.36032776	          0.00000000	          0.00000000	         -0.00115578	          0.00000000	
          0.74000000	         14.97710996	        726.62517952	         28.61979486	         -0.31089502	          0.00000000	         -0.04325058	          0.00172189	          0.20550961	          0.00428947	          0.00015141	          0.00000000	          0.00008816	          0.00000000	         -1.45667741	          0.00000000	          0.00000000	         -0.00074828	          0.00000000	
          0.74500000	         16.32567187	        733.58536068	         29.35010250	         -0.30852659	          0.00000000	         -0.04319559	         -0.00390844	          0.26661072	          0.00566456	          0.00018104	          0.00000000	          0.00010372	          0.00000000	         -1.54137505	          0.00000000	          0.00000000	         -0.00002056	          0.00000000	
          0.75000000	         17.77795685	        740.85616791	         30.11683908	         -0.30624466	          0.00000000	         -0.04311747	         -0.01220623	          0.32900996	          0.00711026	          0.00020492	          0.00000000	          0.00011518	          0.00000000	         -1.61334419	          0.00000000	          0.00000000	          0.00111677	          0.00000000	
          0.75500000	         19.37359816	        748.44133174	         30.91824463	         -0.30406340	          0.00000000	         -0.04301459	         -0.02364027	          0.38573791	          0.00848775	          0.00021688	          0.00000000	          0.00011885	          0.00000000	         -1.67176998	          0.00000000	          0.00000000	          0.00275257	          0.00000000	
          0.76000000	         21.15280588	        756.33043285	         31.74474553	         -0.30199480	          0.00000000	         -0.04288528	         -0.03855477	          0.42662600	          0.00958901	          0.00020878	          0.00000000	          0.00010991	          0.00000000	         -1.71644249	          0.00000000	          0.00000000	          0.00496394	          0.00000000	
          0.76500000	         23.15433478	        764.49624630	         32.57561846	         -0.30004825	          0.00000000	         -0.04272831	         -0.05705725	          0.43777109	          0.01012370	          0.00017041	          0.00000000	          0.00008242	          0.00000000	         -1.74814498	          0.00000000	          0.00000000	          0.00780011	          0.00000000	
          0.77000000	         25.41396495	        772.89446838	         33.37725320	         -0.29822967	          0.00000000	         -0.04254290	         -0.07887289	          0.40116105	          0.00970894	          0.00008955	          0.00000000	          0.00002939	          0.00000000	         -1.76924719	          0.00000000	          0.00000000	          0.01126080	          0.00000000	
          0.77500000	         27.96187332	        781.46548507	         34.10905494	         -0.29654212	          0.00000000	         -0.04232990	         -0.10316451	          0.29459767	          0.00786479	         -0.00004757	          0.00000000	         -0.00005694	          0.00000000	         -1.78380555	          0.00000000	          0.00000000	          0.01526856	          0.00000000	
          0.78000000	         30.82227740	        790.13998881	         34.73511550	         -0.29498532	          0.00000000	         -0.04209268	         -0.12832129	          0.09209274	          0.00401911	         -0.00025554	          0.00000000	         -0.00018453	          0.00000000	         -1.79588318	          0.00000000	          0.00000000	          0.01963514	          0.00000000	
          0.78500000	         34.01339448	        798.84643423	         35.22955486	         -0.29355652	          0.00000000	         -0.04183625	         -0.15172464	         -0.23504696	         -0.00247343	         -0.00054832	          0.00000000	         -0.00036073	          0.00000000	         -1.80924594	          0.00000000	          0.00000000	          0.02402273	          0.00000000	
          0.79000000	         37.54512133	        807.52184180	         35.57805617	         -0.29225116	          0.00000000	         -0.04156649	         -0.16950744	         -0.71619408	         -0.01229273	         -0.00093725	          0.00000000	         -0.00059101	          0.00000000	         -1.82695230	          0.00000000	          0.00000000	          0.02790196	          0.00000000	
          0.79500000	         41.41478931	        816.11148654	         35.77974348	         -0.29106363	          0.00000000	         -0.04128944	         -0.17633255	         -1.37815829	         -0.02608870	         -0.00142816	          0.00000000	         -0.00087721	          0.00000000	         -1.85095153	          0.00000000	          0.00000000	          0.03051007	          0.00000000	
          0.80000000	         45.60571307	        824.56514767	         35.84692984	         -0.28998748	          0.00000000	         -0.04101148	         -0.16522874	         -2.24044624	         -0.04438438	         -0.00201754	          0.00000000	         -0.00121532	          0.00000000	         -1.88170647	          0.00000000	          0.00000000	          0.03081435	          0.00000000	
          0.80500000	         50.09054328	        832.83246565	         35.80272193	         -0.28901502	          0.00000000	         -0.04073739	         -0.12753634	         -3.30877064	         -0.06744047	         -0.00268778	          0.00000000	         -0.00159269	          0.00000000	         -1.91817566	          0.00000000	          0.00000000	          0.02748857	          0.00000000	
          0.81000000	         54.83349987	        840.85775513	         35.67859274	         -0.28813800	          0.00000000	         -0.04047031	         -0.05303076	         -4.56662970	         -0.09507635	         -0.00340147	          0.00000000	         -0.00198472	          0.00000000	         -1.95824540	          0.00000000	          0.00000000	          0.01891229	          0.00000000	
          0.81500000	         59.79418031	        848.57965774	         35.51090491	         -0.28734687	          0.00000000	         -0.04021213	          0.06969191	         -5.96491593	         -0.12644561	         -0.00409488	          0.00000000	         -0.00235128	          0.00000000	         -1.99883855	          0.00000000	          0.00000000	          0.00320621	          0.00000000	
          0.82000000	         64.93121169	        855.92349390	         35.33644985	         -0.28663167	          0.00000000	         -0.03996384	          0.25246819	         -7.40973347	         -0.15976790	         -0.00467117	          0.00000000	         -0.00263290	          0.00000000	         -2.03680857	          0.00000000	          0.00000000	         -0.02168095	          0.00000000	
          0.82500000	         70.20266309	        862.79852293	         35.18936037	         -0.28598181	          0.00000000	         -0.03972706	          0.50634938	         -8.74892442	         -0.19202613	         -0.00499372	          0.00000000	         -0.00274734	          0.00000000	         -2.06936595	          0.00000000	          0.00000000	         -0.05781562	          0.00000000	
          0.83000000	         75.56802900	        869.09595934	         35.09780734	         -0.28538480	          0.00000000	         -0.03950223	          0.83979947	         -9.75824356	         -0.21864674	         -0.00488084	          0.00000000	         -0.00258698	          0.00000000	         -2.09418650	          0.00000000	          0.00000000	         -0.10703300	          0.00000000	
          0.83500000	         80.98956549	        874.68734094	         35.08143925	         -0.28482706	          0.00000000	         -0.03928894	          1.25620391	        -10.12868992	         -0.23319311	         -0.00410287	          0.00000000	         -0.00201786	          0.00000000	         -2.10934483	          0.00000000	          0.00000000	         -0.17058141	          0.00000000	
          0.84000000	         86.43230816	        879.42713683	         35.15090914	         -0.28429429	          0.00000000	         -0.03908685	          1.75061133	         -9.45720456	         -0.22711715	         -0.00238373	          0.00000000	         -0.00088153	          0.00000000	         -2.11305284	          0.00000000	          0.00000000	         -0.24864003	          0.00000000	
